<svg width="269" height="115" viewBox="0 0 269 115" fill="none" xmlns="http://www.w3.org/2000/svg">
<path d="M2.71365 57.9809V58.6946H3.42736H48.034H48.7477V57.9809V49.0596V48.3459H48.034H13.0624V31.9306H25.7307H26.4444V31.2169V22.2956V21.5819H25.7307H13.0624V14.088H48.034H48.7477V13.3743V4.45294V3.73924H48.034H3.42736H2.71365V4.45294V57.9809Z" fill="black" stroke="black" stroke-width="1.42741"/>
<path d="M51.781 57.9809V58.6946H52.4947H61.416H62.1297V57.9809V4.45294V3.73924H61.416H52.4947H51.781V4.45294V57.9809Z" fill="black" stroke="black" stroke-width="1.42741"/>
<path d="M1.28629 55.1261V55.8398H2H46.6067H47.3204V55.1261V46.2048V45.4911H46.6067H11.635V29.0758H24.3033H25.017V28.3621V19.4408V18.7271H24.3033H11.635V11.2332H46.6067H47.3204V10.5195V1.59814V0.884438H46.6067H2H1.28629V1.59814V55.1261Z" fill="white" stroke="black" stroke-width="1.42741"/>
<path d="M50.3536 55.1261V55.8398H51.0673H59.9887H60.7024V55.1261V1.59814V0.884438H59.9887H51.0673H50.3536V1.59814V55.1261Z" fill="white" stroke="black" stroke-width="1.42741"/>
<path d="M34.5606 99.2296V94.2178H45.2803V99.2296H34.5606ZM70.4443 106.469C68.8201 106.469 67.2887 106.167 65.8502 105.564C64.4116 104.937 63.147 104.067 62.0565 102.954C60.966 101.817 60.1075 100.483 59.481 98.9511C58.8777 97.3966 58.5761 95.6679 58.5761 93.7653C58.5761 92.0483 58.8893 90.4473 59.5158 88.9623C60.1423 87.4774 61.0124 86.1664 62.1261 85.0295C63.2399 83.8925 64.5392 83.0108 66.0242 82.3843C67.5324 81.7347 69.1566 81.4098 70.8968 81.4098C73.1707 81.4098 75.1777 81.8971 76.9179 82.8716C78.6581 83.8461 79.9459 85.1571 80.7812 86.8045L76.5351 90.0065C75.9782 88.9159 75.1661 88.0574 74.0988 87.4309C73.0546 86.8045 71.9177 86.4912 70.688 86.4912C69.7598 86.4912 68.9013 86.6885 68.1124 87.0829C67.3468 87.4542 66.6739 87.9878 66.0938 88.6839C65.5369 89.3568 65.1077 90.1457 64.806 91.0506C64.5044 91.9555 64.3536 92.93 64.3536 93.9741C64.3536 95.0415 64.516 96.0276 64.8408 96.9325C65.1657 97.8374 65.6181 98.6263 66.1982 99.2992C66.7783 99.9489 67.4628 100.459 68.2517 100.831C69.0638 101.202 69.9571 101.387 70.9316 101.387C72.1149 101.387 73.2403 101.097 74.3076 100.517C75.3981 99.9141 76.3958 99.0324 77.3008 97.8722V103.51C75.3285 105.483 73.043 106.469 70.4443 106.469ZM76.9527 97.5242H72.1497V93.3825H81.6861V106.295H76.9527V97.5242ZM102.131 81.5838H108.291L116.783 106.295H110.936L109.022 100.761H101.33L99.4509 106.295H93.6038L102.131 81.5838ZM108.082 96.8281L105.194 87.3265L102.235 96.8281H108.082ZM149.149 106.295V91.5726L143.824 102.292H140.691L135.366 91.5726V106.295H129.658V81.5838H135.853L142.257 94.4962L148.696 81.5838H154.857V106.295H149.149ZM187.411 101.283V106.295H170.043V81.5838H187.097V86.5956H175.751V91.3986H185.496V96.0276H175.751V101.283H187.411ZM200.832 99.2296V94.2178H211.552V99.2296H200.832Z" fill="#BDE3E5"/>
<path d="M160.955 62.0965V62.8102H161.669H170.59H171.304V62.0965V53.1752V52.4615H170.59H162.382V31.5856H166.129H166.843V30.8719V21.9505V21.2368H166.129H162.382V13.0292V12.3155H161.669H152.747H152.034V13.0292V21.2368H148.287H147.573V21.9505V30.8719V31.5856H148.287H152.034V53.1752V53.8889H152.747H160.955V62.0965Z" fill="black" stroke="black" stroke-width="1.42741"/>
<path d="M201.101 35.3325V36.0462H201.815H206.275H206.989V35.3325V26.4112V25.6975H206.275H202.528V21.9505V21.2368H201.815H188.433H187.719V21.9505V25.6975H184.686V21.9505V21.2368H183.972H175.051H174.337V21.9505V62.0965V62.8102H175.051H183.972H184.686V62.0965V36.0462H188.433H189.146V35.3325V31.5856H201.101V35.3325Z" fill="black" stroke="black" stroke-width="1.42741"/>
<path d="M210.022 62.0965V62.8102H210.736H219.657H220.371V62.0965V21.9505V21.2368H219.657H210.736H210.022V21.9505V62.0965Z" fill="black" stroke="black" stroke-width="1.42741"/>
<path d="M210.022 17.4899V18.2036H210.736H219.657H220.371V17.4899V8.56851V7.8548H219.657H210.736H210.022V8.56851V17.4899Z" fill="black" stroke="black" stroke-width="1.42741"/>
<path d="M112.922 57.8597V58.5734H113.635H135.939H136.652V57.8597V49.6521H144.86H145.574V48.9384V40.0171V39.3034H144.86H135.939H135.225V40.0171V48.2247H114.349V27.3488H135.225V35.5564V36.2701H135.939H144.86H145.574V35.5564V26.6351V25.9214H144.86H136.652V17.7137V17H135.939H113.635H112.922V17.7137V25.9214H104.714H104V26.6351V48.9384V49.6521H104.714H112.922V57.8597Z" fill="black" stroke="black" stroke-width="1.42741"/>
<path d="M72.3487 59.7145V60.4282H73.0624H99.8264H100.54V59.7145V46.3325V45.6188H99.8264H90.9051H90.1914V46.3325V50.0795H73.7761V42.5856H90.9051H91.6188V41.8719V38.1249H99.8264H100.54V37.4112V19.5685V18.8548H99.8264H73.0624H72.3487V19.5685V27.7762H64.1411H63.4274V28.4899V50.7932V51.5069H64.1411H72.3487V59.7145Z" fill="black" stroke="black" stroke-width="1.42741"/>
<path d="M73.7761 29.2036H90.1914V32.2368H73.7761V29.2036Z" fill="black" stroke="black" stroke-width="1.42741"/>
<path d="M70.9214 56.8597V57.5734H71.6351H98.3994H99.1124V56.8597V43.4777V42.764H98.3994H89.4777H88.764V43.4777V47.2247H72.3488V39.7308H89.4777H90.1914V39.0171V35.2701H98.3994H99.1124V34.5564V16.7137V16H98.3994H71.6351H70.9214V16.7137V24.9214H62.7137H62V25.6351V47.9384V48.6521H62.7137H70.9214V56.8597Z" fill="white" stroke="black" stroke-width="1.42741"/>
<path d="M70.9214 56.8597V57.5734H71.6351H98.3994H99.1124V56.8597V43.4777V42.764H98.3994H89.4777H88.764V43.4777V47.2247H72.3488V39.7308H89.4777H90.1914V39.0171V35.2701H98.3994H99.1124V34.5564V16.7137V16H98.3994H71.6351H70.9214V16.7137V24.9214H62.7137H62V25.6351V47.9384V48.6521H62.7137H70.9214V56.8597Z" fill="white" stroke="black" stroke-width="1.42741"/>
<path d="M72.3488 26.3488H88.764V29.382H72.3488V26.3488Z" fill="black" stroke="black" stroke-width="1.42741"/>
<path d="M159.528 59.2417V59.9554H160.241H169.163H169.876V59.2417V50.3204V49.6067H169.163H160.955V28.7308H164.702H165.416V28.0171V19.0957V18.382H164.702H160.955V10.1744V9.46066H160.241H151.32H150.606V10.1744V18.382H146.859H146.146V19.0957V28.0171V28.7308H146.859H150.606V50.3204V51.0341H151.32H159.528V59.2417Z" fill="white" stroke="black" stroke-width="1.42741"/>
<path d="M199.674 32.4777V33.1914H200.387H204.848H205.562V32.4777V23.5564V22.8427H204.848H201.101V19.0957V18.382H200.387H187.005H186.292V19.0957V22.8427H183.258V19.0957V18.382H182.545H173.623H172.91V19.0957V59.2417V59.9554H173.623H182.545H183.258V59.2417V33.1914H187.005H187.719V32.4777V28.7308H199.674V32.4777Z" fill="white" stroke="black" stroke-width="1.42741"/>
<path d="M208.595 59.2417V59.9554H209.309H218.23H218.944V59.2417V19.0957V18.382H218.23H209.309H208.595V19.0957V59.2417Z" fill="white" stroke="black" stroke-width="1.42741"/>
<path d="M208.595 14.6351V15.3488H209.309H218.23H218.944V14.6351V5.7137V5H218.23H209.309H208.595V5.7137V14.6351Z" fill="white" stroke="black" stroke-width="1.42741"/>
<path d="M111.921 55.8597V56.5734H112.635H134.938H135.652V55.8597V47.6521H143.86H144.573V46.9384V38.0171V37.3034H143.86H134.938H134.225V38.0171V46.2247H113.349V25.3488H134.225V33.5564V34.2701H134.938H143.86H144.573V33.5564V24.6351V23.9214H143.86H135.652V15.7137V15H134.938H112.635H111.921V15.7137V23.9214H103.714H103V24.6351V46.9384V47.6521H103.714H111.921V55.8597Z" fill="white" stroke="black" stroke-width="1.42741"/>
<path d="M234.922 61.8597V62.5734H235.635H257.939H258.652V61.8597V53.6521H266.86H267.574V52.9384V44.0171V43.3034H266.86H257.939H257.225V44.0171V52.2247H236.349V31.3488H257.225V39.5564V40.2701H257.939H266.86H267.574V39.5564V30.6351V29.9214H266.86H258.652V21.7137V21H257.939H235.635H234.922V21.7137V29.9214H226.714H226V30.6351V52.9384V53.6521H226.714H234.922V61.8597Z" fill="black" stroke="black" stroke-width="1.42741"/>
<path d="M233.921 59.8597V60.5734H234.635H256.938H257.652V59.8597V51.6521H265.86H266.573V50.9384V42.0171V41.3034H265.86H256.938H256.225V42.0171V50.2247H235.349V29.3488H256.225V37.5564V38.2701H256.938H265.86H266.573V37.5564V28.6351V27.9214H265.86H257.652V19.7137V19H256.938H234.635H233.921V19.7137V27.9214H225.714H225V28.6351V50.9384V51.6521H225.714H233.921V59.8597Z" fill="white" stroke="black" stroke-width="1.42741"/>
</svg>
